<mxfile host="app.diagrams.net" modified="2023-05-28T18:31:32.296Z" agent="Mozilla/5.0 (Windows NT 10.0; Win64; x64) AppleWebKit/537.36 (KHTML, like Gecko) Chrome/113.0.0.0 Safari/537.36" etag="SNIyOMyVHnQOX_jPuQn2" version="21.3.4" type="device">
  <diagram name="Page-1" id="Rn30V9LT4goVMZbr3MII">
    <mxGraphModel dx="1434" dy="822" grid="1" gridSize="10" guides="1" tooltips="1" connect="1" arrows="1" fold="1" page="1" pageScale="1" pageWidth="827" pageHeight="1169" math="0" shadow="0">
      <root>
        <mxCell id="0" />
        <mxCell id="1" parent="0" />
        <mxCell id="T8Uv4oPCRrsvSY-ZDlu5-1" value="Sign Up" style="swimlane;childLayout=stackLayout;resizeParent=1;resizeParentMax=0;startSize=20;html=1;" vertex="1" parent="1">
          <mxGeometry x="230.00000000000045" y="180" width="910" height="700" as="geometry" />
        </mxCell>
        <mxCell id="T8Uv4oPCRrsvSY-ZDlu5-62" value="Unregistered User" style="swimlane;startSize=20;html=1;" vertex="1" parent="T8Uv4oPCRrsvSY-ZDlu5-1">
          <mxGeometry y="20" width="230" height="680" as="geometry" />
        </mxCell>
        <mxCell id="T8Uv4oPCRrsvSY-ZDlu5-18" value="Admin" style="swimlane;startSize=20;html=1;" vertex="1" parent="T8Uv4oPCRrsvSY-ZDlu5-1">
          <mxGeometry x="230" y="20" width="220" height="680" as="geometry" />
        </mxCell>
        <mxCell id="T8Uv4oPCRrsvSY-ZDlu5-35" value="System" style="swimlane;startSize=20;html=1;" vertex="1" parent="T8Uv4oPCRrsvSY-ZDlu5-1">
          <mxGeometry x="450" y="20" width="460" height="680" as="geometry" />
        </mxCell>
        <mxCell id="T8Uv4oPCRrsvSY-ZDlu5-42" value="" style="endArrow=none;html=1;rounded=0;strokeWidth=1;entryX=-0.598;entryY=0.51;entryDx=0;entryDy=0;entryPerimeter=0;" edge="1" parent="T8Uv4oPCRrsvSY-ZDlu5-35">
          <mxGeometry width="50" height="50" relative="1" as="geometry">
            <mxPoint x="412.99999999999955" y="729" as="sourcePoint" />
            <mxPoint x="412.83999999999924" y="713.02" as="targetPoint" />
          </mxGeometry>
        </mxCell>
        <mxCell id="T8Uv4oPCRrsvSY-ZDlu5-63" value="" style="ellipse;html=1;shape=startState;fillColor=#000000;strokeColor=#ff0000;" vertex="1" parent="T8Uv4oPCRrsvSY-ZDlu5-35">
          <mxGeometry x="234.99999999999955" y="81" width="30" height="30" as="geometry" />
        </mxCell>
        <mxCell id="T8Uv4oPCRrsvSY-ZDlu5-64" value="" style="edgeStyle=orthogonalEdgeStyle;html=1;verticalAlign=bottom;endArrow=open;endSize=8;strokeColor=#ff0000;rounded=0;" edge="1" parent="T8Uv4oPCRrsvSY-ZDlu5-35" source="T8Uv4oPCRrsvSY-ZDlu5-63">
          <mxGeometry relative="1" as="geometry">
            <mxPoint x="249.99999999999955" y="171" as="targetPoint" />
          </mxGeometry>
        </mxCell>
        <mxCell id="T8Uv4oPCRrsvSY-ZDlu5-65" value="Check Characters" style="rounded=1;whiteSpace=wrap;html=1;arcSize=40;fontColor=#000000;fillColor=#ffffc0;strokeColor=#ff0000;" vertex="1" parent="T8Uv4oPCRrsvSY-ZDlu5-35">
          <mxGeometry x="62.999999999999545" y="254" width="120" height="40" as="geometry" />
        </mxCell>
        <mxCell id="T8Uv4oPCRrsvSY-ZDlu5-66" value="" style="edgeStyle=orthogonalEdgeStyle;html=1;verticalAlign=bottom;endArrow=open;endSize=8;strokeColor=#ff0000;rounded=0;" edge="1" parent="T8Uv4oPCRrsvSY-ZDlu5-35" source="T8Uv4oPCRrsvSY-ZDlu5-65">
          <mxGeometry relative="1" as="geometry">
            <mxPoint x="122.99999999999955" y="354" as="targetPoint" />
          </mxGeometry>
        </mxCell>
        <mxCell id="T8Uv4oPCRrsvSY-ZDlu5-67" value="Check Length" style="rounded=1;whiteSpace=wrap;html=1;arcSize=40;fontColor=#000000;fillColor=#ffffc0;strokeColor=#ff0000;" vertex="1" parent="T8Uv4oPCRrsvSY-ZDlu5-35">
          <mxGeometry x="192.99999999999955" y="254" width="120" height="40" as="geometry" />
        </mxCell>
        <mxCell id="T8Uv4oPCRrsvSY-ZDlu5-68" value="" style="edgeStyle=orthogonalEdgeStyle;html=1;verticalAlign=bottom;endArrow=open;endSize=8;strokeColor=#ff0000;rounded=0;" edge="1" parent="T8Uv4oPCRrsvSY-ZDlu5-35" source="T8Uv4oPCRrsvSY-ZDlu5-67">
          <mxGeometry relative="1" as="geometry">
            <mxPoint x="252.99999999999955" y="354" as="targetPoint" />
          </mxGeometry>
        </mxCell>
        <mxCell id="T8Uv4oPCRrsvSY-ZDlu5-69" value="Check Position" style="rounded=1;whiteSpace=wrap;html=1;arcSize=40;fontColor=#000000;fillColor=#ffffc0;strokeColor=#ff0000;" vertex="1" parent="T8Uv4oPCRrsvSY-ZDlu5-35">
          <mxGeometry x="323.99999999999955" y="254" width="120" height="40" as="geometry" />
        </mxCell>
        <mxCell id="T8Uv4oPCRrsvSY-ZDlu5-70" value="" style="edgeStyle=orthogonalEdgeStyle;html=1;verticalAlign=bottom;endArrow=open;endSize=8;strokeColor=#ff0000;rounded=0;" edge="1" parent="T8Uv4oPCRrsvSY-ZDlu5-35" source="T8Uv4oPCRrsvSY-ZDlu5-69">
          <mxGeometry relative="1" as="geometry">
            <mxPoint x="383.99999999999955" y="354" as="targetPoint" />
          </mxGeometry>
        </mxCell>
        <mxCell id="T8Uv4oPCRrsvSY-ZDlu5-71" value="" style="shape=line;html=1;strokeWidth=6;strokeColor=#ff0000;" vertex="1" parent="T8Uv4oPCRrsvSY-ZDlu5-35">
          <mxGeometry x="104.99999999999955" y="171" width="290" height="10" as="geometry" />
        </mxCell>
        <mxCell id="T8Uv4oPCRrsvSY-ZDlu5-72" value="" style="edgeStyle=orthogonalEdgeStyle;html=1;verticalAlign=bottom;endArrow=open;endSize=8;strokeColor=#ff0000;rounded=0;" edge="1" parent="T8Uv4oPCRrsvSY-ZDlu5-35">
          <mxGeometry relative="1" as="geometry">
            <mxPoint x="249.99999999999955" y="251" as="targetPoint" />
            <mxPoint x="249.99999999999955" y="176" as="sourcePoint" />
            <Array as="points">
              <mxPoint x="249.99999999999955" y="181" />
            </Array>
          </mxGeometry>
        </mxCell>
        <mxCell id="T8Uv4oPCRrsvSY-ZDlu5-73" value="" style="edgeStyle=orthogonalEdgeStyle;html=1;verticalAlign=bottom;endArrow=open;endSize=8;strokeColor=#ff0000;rounded=0;exitX=0.097;exitY=1;exitDx=0;exitDy=0;exitPerimeter=0;" edge="1" parent="T8Uv4oPCRrsvSY-ZDlu5-35">
          <mxGeometry relative="1" as="geometry">
            <mxPoint x="122.99999999999955" y="251" as="targetPoint" />
            <mxPoint x="123.12999999999954" y="181" as="sourcePoint" />
          </mxGeometry>
        </mxCell>
        <mxCell id="T8Uv4oPCRrsvSY-ZDlu5-74" value="" style="edgeStyle=orthogonalEdgeStyle;html=1;verticalAlign=bottom;endArrow=open;endSize=8;strokeColor=#ff0000;rounded=0;exitX=0.955;exitY=1.1;exitDx=0;exitDy=0;exitPerimeter=0;" edge="1" parent="T8Uv4oPCRrsvSY-ZDlu5-35" source="T8Uv4oPCRrsvSY-ZDlu5-71">
          <mxGeometry relative="1" as="geometry">
            <mxPoint x="381.99999999999955" y="251" as="targetPoint" />
          </mxGeometry>
        </mxCell>
        <mxCell id="T8Uv4oPCRrsvSY-ZDlu5-75" value="" style="shape=line;html=1;strokeWidth=6;strokeColor=#ff0000;" vertex="1" parent="T8Uv4oPCRrsvSY-ZDlu5-35">
          <mxGeometry x="87.99999999999955" y="361" width="330" height="10" as="geometry" />
        </mxCell>
        <mxCell id="T8Uv4oPCRrsvSY-ZDlu5-76" value="" style="edgeStyle=orthogonalEdgeStyle;html=1;verticalAlign=bottom;endArrow=open;endSize=8;strokeColor=#ff0000;rounded=0;" edge="1" parent="T8Uv4oPCRrsvSY-ZDlu5-35" source="T8Uv4oPCRrsvSY-ZDlu5-75">
          <mxGeometry relative="1" as="geometry">
            <mxPoint x="252.99999999999955" y="441" as="targetPoint" />
          </mxGeometry>
        </mxCell>
        <mxCell id="T8Uv4oPCRrsvSY-ZDlu5-77" value="" style="rhombus;whiteSpace=wrap;html=1;fontColor=#000000;fillColor=#ffffc0;strokeColor=#ff0000;" vertex="1" parent="T8Uv4oPCRrsvSY-ZDlu5-35">
          <mxGeometry x="214.99999999999955" y="444" width="80" height="40" as="geometry" />
        </mxCell>
        <mxCell id="T8Uv4oPCRrsvSY-ZDlu5-78" value="[Not match]" style="edgeStyle=orthogonalEdgeStyle;html=1;align=left;verticalAlign=bottom;endArrow=open;endSize=8;strokeColor=#ff0000;rounded=0;" edge="1" parent="T8Uv4oPCRrsvSY-ZDlu5-35" source="T8Uv4oPCRrsvSY-ZDlu5-77">
          <mxGeometry x="0.1543" y="-13" relative="1" as="geometry">
            <mxPoint x="144.99999999999955" y="464" as="targetPoint" />
            <mxPoint as="offset" />
          </mxGeometry>
        </mxCell>
        <mxCell id="T8Uv4oPCRrsvSY-ZDlu5-79" value="[Match]" style="edgeStyle=orthogonalEdgeStyle;html=1;align=left;verticalAlign=top;endArrow=open;endSize=8;strokeColor=#ff0000;rounded=0;" edge="1" parent="T8Uv4oPCRrsvSY-ZDlu5-35" source="T8Uv4oPCRrsvSY-ZDlu5-77">
          <mxGeometry x="-1" relative="1" as="geometry">
            <mxPoint x="254.99999999999955" y="544" as="targetPoint" />
          </mxGeometry>
        </mxCell>
        <mxCell id="T8Uv4oPCRrsvSY-ZDlu5-80" value="" style="ellipse;html=1;shape=endState;fillColor=#000000;strokeColor=#ff0000;" vertex="1" parent="T8Uv4oPCRrsvSY-ZDlu5-35">
          <mxGeometry x="239.99999999999955" y="548" width="30" height="30" as="geometry" />
        </mxCell>
        <mxCell id="T8Uv4oPCRrsvSY-ZDlu5-81" value="Create a message for the mismatch" style="rounded=1;whiteSpace=wrap;html=1;arcSize=40;fontColor=#000000;fillColor=#ffffc0;strokeColor=#ff0000;" vertex="1" parent="T8Uv4oPCRrsvSY-ZDlu5-35">
          <mxGeometry x="24.999999999999545" y="444" width="120" height="40" as="geometry" />
        </mxCell>
        <mxCell id="T8Uv4oPCRrsvSY-ZDlu5-82" value="" style="edgeStyle=orthogonalEdgeStyle;html=1;verticalAlign=bottom;endArrow=open;endSize=8;strokeColor=#ff0000;rounded=0;entryX=-0.233;entryY=0.475;entryDx=0;entryDy=0;entryPerimeter=0;exitX=0.5;exitY=1;exitDx=0;exitDy=0;" edge="1" parent="T8Uv4oPCRrsvSY-ZDlu5-35" source="T8Uv4oPCRrsvSY-ZDlu5-81" target="T8Uv4oPCRrsvSY-ZDlu5-80">
          <mxGeometry relative="1" as="geometry">
            <mxPoint x="104.99999999999955" y="1" as="targetPoint" />
            <mxPoint x="24.999999999999545" y="491" as="sourcePoint" />
            <Array as="points">
              <mxPoint x="84.99999999999955" y="561" />
              <mxPoint x="184.99999999999955" y="561" />
              <mxPoint x="184.99999999999955" y="562" />
            </Array>
          </mxGeometry>
        </mxCell>
        <mxCell id="T8Uv4oPCRrsvSY-ZDlu5-83" value="Check if the password is valid" style="shape=umlFrame;whiteSpace=wrap;html=1;pointerEvents=0;width=130;height=30;" vertex="1" parent="T8Uv4oPCRrsvSY-ZDlu5-35">
          <mxGeometry x="4.999999999999545" y="71" width="450" height="530" as="geometry" />
        </mxCell>
      </root>
    </mxGraphModel>
  </diagram>
</mxfile>
